# xmcd CD database file
#
# Track frame offsets:
#	152
#	35565
#	46675
#	57049
#	71560
#	88537
#	102293
#	118748
#	130682
#	151421
#	162853
#	175793
#
# Disc length: 2717 seconds
#
# Revision: 0
# Processed by: cddbd v1.5.2PL0 Copyright (c) Steve Scherf et al.
# Submitted via: CDex 1.70beta2
#
DISCID=920a9b0c
DTITLE=Hot Dogs - Ja, so warn's die alten Rittersleut'
DYEAR=1900
DGENRE=Jazz
TTITLE0=Ja, so warn's die alten Rittersleut'
TTITLE1=Mia san de tapfern Bayern
TTITLE2=I bin da Wirt von Stoa
TTITLE3=Zillertal, du bist mei Freud'
TTITLE4=Mariechen sass weinend im Garten
TTITLE5=Wien bleibt Wien
TTITLE6=Ja, mia san mit'm Radl da
TTITLE7=Hoch- und Deutschmeister
TTITLE8=Die Moritat vom Hintertupferbene
TTITLE9=Appenzeller Ländler
TTITLE10=Brotzeitpolka
TTITLE11=Ja, so warn's die alten Rittersleut' (neue Verse)
EXTD=
EXTT0=
EXTT1=
EXTT2=
EXTT3=
EXTT4=
EXTT5=
EXTT6=
EXTT7=
EXTT8=
EXTT9=
EXTT10=
EXTT11=
PLAYORDER=
